<svg width="51" height="51" viewBox="0 0 51 51" fill="none" xmlns="http://www.w3.org/2000/svg">
<circle cx="24.9997" cy="24.9997" r="13.6052" stroke="#B10923" stroke-width="3.02338"/>
<circle opacity="0.3" cx="25.195" cy="25.195" r="16.6286" stroke="#B10923" stroke-width="3.02338"/>
<path d="M25.0088 6.85447L28.5287 13.3384L32.4191 15.0057L25.0088 0L14.4492 21.4897L31.8633 29.8262L25.0088 43.7204L22.0447 37.0512L17.9691 35.1987L25.0088 50.3896L35.7537 28.7147L18.7101 20.1929L25.0088 6.85447Z" fill="white"/>
<path d="M25.1953 16.1181V12.9688L50.3901 25.0104L35.1991 32.4206L37.0517 28.7155L43.7209 25.0104L25.1953 16.1181Z" fill="white"/>
<path d="M25.1953 34.087V37.2363L0.000488281 25.1947L15.1915 17.7844L13.3389 21.4896L6.66971 25.1947L25.1953 34.087Z" fill="white"/>
<circle cx="24.9999" cy="24.9999" r="3.02338" fill="#1E1E1E" stroke="#B10923" stroke-width="2.01559"/>
<circle opacity="0.3" cx="25.1952" cy="25.1952" r="5.03896" stroke="#B10923" stroke-width="2.01559"/>
</svg>
